HIERARCHY
ROOT Hips
{
	OFFSET 0.000000 0.000000 0.000000
	CHANNELS 6 Xposition Yposition Zposition Xrotation Yrotation Zrotation
	JOINT Chest
	{
		OFFSET 0.000000 0.009282 11.569106
		CHANNELS 6 Xposition Yposition Zposition Xrotation Yrotation Zrotation
		JOINT Chest2
		{
			OFFSET 0.000000 -0.016863 9.269641
			CHANNELS 6 Xposition Yposition Zposition Xrotation Yrotation Zrotation
			JOINT Chest3
			{
				OFFSET 0.000000 0.000000 8.374491
				CHANNELS 6 Xposition Yposition Zposition Xrotation Yrotation Zrotation
				JOINT Chest4
				{
					OFFSET 0.000000 0.000000 8.374493
					CHANNELS 6 Xposition Yposition Zposition Xrotation Yrotation Zrotation
					JOINT Neck
					{
						OFFSET 0.000000 -0.000001 12.152554
						CHANNELS 6 Xposition Yposition Zposition Xrotation Yrotation Zrotation
						JOINT Head
						{
							OFFSET 0.000000 -0.040100 7.802319
							CHANNELS 6 Xposition Yposition Zposition Xrotation Yrotation Zrotation
							End Site
							{
								OFFSET 0.000000 -0.020946 14.853096
							}
						}
					}
					JOINT RightCollar
					{
						OFFSET -2.894404 0.000000 6.791374
						CHANNELS 6 Xposition Yposition Zposition Xrotation Yrotation Zrotation
						JOINT RightShoulder
						{
							OFFSET -13.574684 0.000000 0.000000
							CHANNELS 6 Xposition Yposition Zposition Xrotation Yrotation Zrotation
							JOINT RightElbow
							{
								OFFSET -23.923903 0.000000 0.000000
								CHANNELS 6 Xposition Yposition Zposition Xrotation Yrotation Zrotation
								JOINT RightWrist
								{
									OFFSET -19.846718 -0.012765 0.000000
									CHANNELS 6 Xposition Yposition Zposition Xrotation Yrotation Zrotation
									End Site
									{
										OFFSET -14.973145 0.000000 0.000000
									}
								}
							}
						}
					}
					JOINT LeftCollar
					{
						OFFSET 2.894404 0.000000 6.791374
						CHANNELS 6 Xposition Yposition Zposition Xrotation Yrotation Zrotation
						JOINT LeftShoulder
						{
							OFFSET 13.574684 0.000000 0.000000
							CHANNELS 6 Xposition Yposition Zposition Xrotation Yrotation Zrotation
							JOINT LeftElbow
							{
								OFFSET 23.923903 0.000000 0.000000
								CHANNELS 6 Xposition Yposition Zposition Xrotation Yrotation Zrotation
								JOINT LeftWrist
								{
									OFFSET 19.846718 -0.012765 0.000000
									CHANNELS 6 Xposition Yposition Zposition Xrotation Yrotation Zrotation
									End Site
									{
										OFFSET 14.973145 0.000000 0.000000
									}
								}
							}
						}
					}
				}
			}
		}
	}
	JOINT RightHip
	{
		OFFSET -9.469263 -0.004642 0.045487
		CHANNELS 6 Xposition Yposition Zposition Xrotation Yrotation Zrotation
		JOINT RightKnee
		{
			OFFSET 0.000000 -0.002666 -40.478676
			CHANNELS 6 Xposition Yposition Zposition Xrotation Yrotation Zrotation
			JOINT RightAnkle
			{
				OFFSET 0.000000 -0.049110 -35.224068
				CHANNELS 6 Xposition Yposition Zposition Xrotation Yrotation Zrotation
				JOINT RightToe
				{
					OFFSET 0.000000 -12.539530 -6.151390
					CHANNELS 6 Xposition Yposition Zposition Xrotation Yrotation Zrotation
					End Site
					{
						OFFSET 0.000000 -5.044995 -1.291870
					}
				}
			}
		}
	}
	JOINT LeftHip
	{
		OFFSET 9.469263 -0.004642 0.045487
		CHANNELS 6 Xposition Yposition Zposition Xrotation Yrotation Zrotation
		JOINT LeftKnee
		{
			OFFSET 0.000000 -0.002666 -40.478676
			CHANNELS 6 Xposition Yposition Zposition Xrotation Yrotation Zrotation
			JOINT LeftAnkle
			{
				OFFSET 0.000000 -0.049110 -35.224068
				CHANNELS 6 Xposition Yposition Zposition Xrotation Yrotation Zrotation
				JOINT LeftToe
				{
					OFFSET 0.000000 -12.539530 -6.151390
					CHANNELS 6 Xposition Yposition Zposition Xrotation Yrotation Zrotation
					End Site
					{
						OFFSET 0.000000 -5.044995 -1.291870
					}
				}
			}
		}
	}
}
MOTION
Frames: 8
Frame Time: 0.016667
-11.388261 -5.588694 82.965286 2.975355 6.795549 -111.520283 -0.000001 0.009282 11.569110 2.478685 0.152599 -0.981830 0.000001 -0.016862 9.269638 1.100307 0.072485 -0.433911 -0.000000 0.000000 8.374482 1.100308 0.072485 -0.433903 -0.000001 0.000002 8.374510 0.825179 0.055146 -0.325301 0.000000 -0.000002 12.152553 20.873490 -0.317564 -0.946617 0.000001 -0.040102 7.802305 2.580137 -0.302181 -1.825560 -2.894403 -0.000001 6.791365 4.101065 -3.119481 2.578054 -13.574683 0.000002 0.000002 31.500307 -61.224989 78.794094 -23.923895 -0.000007 0.000004 30.076379 16.945532 82.627469 -19.846725 -0.012764 -0.000005 -14.627033 50.227568 34.794408 2.894405 -0.000001 6.791361 3.991423 9.943855 -6.180143 13.574681 0.000002 -0.000003 24.739942 53.791107 -68.117989 23.923901 0.000006 0.000007 37.245397 2.913004 -57.332485 19.846716 -0.012762 0.000012 20.110121 -61.490363 -17.805690 -9.469263 -0.004642 0.045493 10.981249 -0.432993 -2.220981 0.000003 -0.002667 -40.478607 1.434937 -0.043461 -0.057695 0.000030 -0.049124 -35.224308 -5.212189 -0.417709 -0.657663 0.000000 -12.539532 -6.151384 0.015568 -0.014941 0.002499 9.469262 -0.004642 0.045496 10.854554 0.260548 -0.381206 -0.000053 -0.002668 -40.478657 0.447728 -0.900755 1.107105 0.000030 -0.049121 -35.224247 -4.068887 0.574161 -0.641591 -0.000001 -12.539530 -6.151381 0.015326 -0.004516 -0.001915 
-11.388139 -5.592418 82.965279 2.970714 6.770011 -111.535398 -0.000001 0.009282 11.569107 2.488645 0.139090 -0.990985 0.000001 -0.016862 9.269634 1.104779 0.066232 -0.437844 -0.000001 0.000001 8.374482 1.104780 0.066231 -0.437843 0.000000 -0.000000 8.374497 0.828538 0.050466 -0.328264 -0.000001 -0.000002 12.152554 20.836481 -0.303277 -0.937904 0.000000 -0.040092 7.802321 2.511552 -0.278116 -1.805534 -2.894405 0.000001 6.791377 4.064078 -3.135631 2.600650 -13.574680 0.000000 -0.000001 31.906696 -61.252836 78.622499 -23.923887 -0.000004 -0.000000 30.678543 16.634777 82.093751 -19.846724 -0.012774 -0.000006 -16.284185 50.791964 36.930447 2.894403 0.000000 6.791382 3.952136 9.970945 -6.145370 13.574691 0.000000 -0.000008 25.242567 53.862206 -68.297445 23.923903 -0.000007 0.000005 37.269566 3.121693 -56.596218 19.846722 -0.012761 -0.000005 17.249100 -62.643626 -20.938232 -9.469264 -0.004641 0.045478 10.953911 -0.430410 -2.205486 0.000005 -0.002667 -40.478607 1.433529 -0.048329 -0.059617 0.000029 -0.049121 -35.224308 -5.208623 -0.415721 -0.653300 -0.000000 -12.539534 -6.151389 0.014401 -0.013706 0.002577 9.469262 -0.004640 0.045479 10.828487 0.262180 -0.401052 -0.000053 -0.002667 -40.478661 0.451217 -0.901770 1.119499 0.000028 -0.049123 -35.224262 -4.073689 0.571222 -0.620625 -0.000000 -12.539527 -6.151382 0.015874 -0.004227 -0.002326 
-11.390228 -5.597154 82.965378 2.965362 6.744785 -111.550404 -0.000000 0.009281 11.569104 2.481072 0.130353 -1.000627 0.000000 -0.016861 9.269638 1.101243 0.062000 -0.441595 -0.000000 0.000000 8.374482 1.101244 0.062000 -0.441597 -0.000001 -0.000001 8.374501 0.825888 0.047296 -0.331084 0.000000 -0.000001 12.152553 20.811793 -0.290363 -0.928608 -0.000000 -0.040098 7.802306 2.465817 -0.256904 -1.784780 -2.894404 0.000001 6.791374 4.020934 -3.152123 2.590211 -13.574682 0.000001 -0.000004 32.387312 -61.217893 78.499132 -23.923895 -0.000001 -0.000006 31.229896 16.328298 81.513540 -19.846718 -0.012766 -0.000002 -18.421871 51.242453 39.514615 2.894403 0.000000 6.791385 3.938679 10.005555 -6.113500 13.574683 0.000001 -0.000007 25.680750 53.953409 -68.437116 23.923893 -0.000002 -0.000000 37.388923 3.084732 -55.877286 19.846716 -0.012775 -0.000010 14.734234 -63.446167 -23.587847 -9.469264 -0.004644 0.045484 10.930397 -0.427385 -2.201183 0.000003 -0.002667 -40.478607 1.427476 -0.048344 -0.052216 0.000029 -0.049126 -35.224304 -5.203423 -0.420663 -0.646443 0.000001 -12.539532 -6.151381 0.012909 -0.010838 0.002638 9.469263 -0.004644 0.045489 10.803814 0.265381 -0.415177 -0.000055 -0.002667 -40.478649 0.454049 -0.902496 1.132470 0.000029 -0.049121 -35.224258 -4.077243 0.566224 -0.607137 0.000001 -12.539530 -6.151377 0.014643 -0.002851 -0.003055 
-11.393140 -5.600807 82.965157 2.958397 6.719523 -111.566591 0.000000 0.009284 11.569102 2.472151 0.130349 -1.007738 0.000000 -0.016862 9.269643 1.097202 0.062014 -0.444227 -0.000000 0.000000 8.374493 1.097204 0.062014 -0.444227 -0.000000 0.000001 8.374498 0.822858 0.047308 -0.333061 -0.000001 -0.000002 12.152563 20.788031 -0.283930 -0.918380 0.000000 -0.040094 7.802316 2.421698 -0.247853 -1.764228 -2.894405 -0.000000 6.791379 3.976049 -3.161510 2.578914 -13.574684 0.000003 -0.000001 32.922915 -61.198235 78.410599 -23.923904 -0.000012 -0.000001 31.721256 16.241937 80.884056 -19.846720 -0.012768 -0.000006 -20.806578 51.723872 42.479644 2.894403 -0.000000 6.791375 3.910099 10.039846 -6.085307 13.574686 0.000001 0.000003 25.995090 54.047202 -68.498642 23.923897 -0.000010 0.000001 37.620474 3.072751 -55.186118 19.846716 -0.012772 0.000005 12.101118 -64.111065 -26.325583 -9.469264 -0.004640 0.045486 10.910722 -0.424903 -2.200060 0.000003 -0.002667 -40.478615 1.413327 -0.045736 -0.045240 0.000028 -0.049126 -35.224308 -5.196465 -0.425768 -0.635682 -0.000001 -12.539531 -6.151383 0.013327 -0.009100 0.002747 9.469264 -0.004639 0.045489 10.782441 0.270685 -0.412488 -0.000054 -0.002667 -40.478649 0.449910 -0.905064 1.136454 0.000028 -0.049120 -35.224243 -4.076849 0.563692 -0.599686 0.000001 -12.539535 -6.151381 0.012803 -0.002359 -0.003090 
-11.397640 -5.601485 82.964546 2.952029 6.697477 -111.580935 0.000001 0.009281 11.569106 2.470223 0.129606 -1.011540 0.000001 -0.016863 9.269637 1.096022 0.061943 -0.445809 -0.000000 -0.000000 8.374483 1.096023 0.061943 -0.445805 0.000002 0.000001 8.374487 0.821973 0.047257 -0.334249 0.000001 0.000000 12.152552 20.761772 -0.283515 -0.909337 -0.000001 -0.040102 7.802323 2.372891 -0.249423 -1.747631 -2.894404 0.000001 6.791372 3.946115 -3.157082 2.582878 -13.574687 0.000001 -0.000006 33.424856 -61.161209 78.308583 -23.923904 -0.000001 0.000002 32.107001 16.342648 80.230605 -19.846720 -0.012767 -0.000002 -23.356675 52.147839 45.600689 2.894404 -0.000000 6.791369 3.862403 10.069137 -6.059623 13.574682 0.000001 -0.000001 26.285544 54.083132 -68.540006 23.923895 0.000008 -0.000007 37.775744 3.214622 -54.521626 19.846714 -0.012758 0.000008 8.974960 -64.750275 -29.657279 -9.469262 -0.004643 0.045497 10.893461 -0.425008 -2.186901 0.000003 -0.002666 -40.478603 1.404762 -0.041637 -0.050721 0.000028 -0.049123 -35.224297 -5.192773 -0.429845 -0.628919 0.000001 -12.539528 -6.151378 0.012444 -0.007655 0.003140 9.469264 -0.004643 0.045499 10.768370 0.270818 -0.392830 -0.000053 -0.002667 -40.478661 0.441734 -0.901563 1.127691 0.000029 -0.049122 -35.224262 -4.078598 0.563097 -0.599168 0.000000 -12.539532 -6.151381 0.012846 -0.003803 -0.003046 
-11.401034 -5.602075 82.963943 2.945946 6.670250 -111.598194 -0.000000 0.009281 11.569100 2.470902 0.122572 -1.015650 -0.000001 -0.016864 9.269628 1.096480 0.058964 -0.447901 -0.000001 0.000000 8.374487 1.096480 0.058964 -0.447902 -0.000000 0.000000 8.374502 0.822316 0.045027 -0.335821 -0.000000 0.000001 12.152562 20.731603 -0.280684 -0.902227 -0.000001 -0.040102 7.802312 2.316853 -0.245961 -1.733878 -2.894404 0.000001 6.791383 3.925880 -3.149275 2.599755 -13.574683 0.000001 0.000006 33.798563 -61.123561 78.130261 -23.923903 -0.000024 0.000002 32.485233 16.438616 79.527465 -19.846720 -0.012769 -0.000000 -26.033469 52.418372 48.879682 2.894405 0.000001 6.791379 3.803037 10.089918 -6.029863 13.574680 0.000000 0.000003 26.632292 54.055411 -68.608226 23.923906 -0.000003 -0.000008 37.789312 3.379276 -53.884725 19.846720 -0.012754 0.000004 5.724579 -65.385230 -33.192165 -9.469263 -0.004642 0.045478 10.865502 -0.425476 -2.156216 0.000004 -0.002667 -40.478607 1.404954 -0.040869 -0.066767 0.000028 -0.049125 -35.224304 -5.191162 -0.431273 -0.628152 -0.000000 -12.539534 -6.151383 0.011289 -0.006783 0.003201 9.469264 -0.004643 0.045482 10.751552 0.269584 -0.367585 -0.000052 -0.002667 -40.478657 0.428806 -0.898484 1.116129 0.000030 -0.049120 -35.224255 -4.078473 0.561733 -0.600009 0.000000 -12.539533 -6.151373 0.013641 -0.004259 -0.003174 
-11.403479 -5.603541 82.963493 2.940511 6.638950 -111.617012 -0.000000 0.009280 11.569119 2.463456 0.109060 -1.025549 -0.000001 -0.016863 9.269629 1.093254 0.053025 -0.452726 0.000000 0.000001 8.374483 1.093253 0.053025 -0.452730 -0.000001 0.000001 8.374487 0.819901 0.040579 -0.339450 -0.000001 -0.000003 12.152551 20.704643 -0.269564 -0.893411 0.000001 -0.040099 7.802320 2.266857 -0.227888 -1.714518 -2.894405 0.000001 6.791375 3.899701 -3.143430 2.603853 -13.574687 0.000001 -0.000000 34.095936 -61.139885 77.946979 -23.923897 -0.000019 0.000003 32.977605 16.446819 78.728374 -19.846716 -0.012759 0.000014 -28.745124 52.548139 52.127051 2.894403 0.000001 6.791370 3.768636 10.107786 -5.985907 13.574681 0.000000 -0.000006 27.004724 54.051429 -68.724025 23.923901 -0.000013 -0.000002 37.765356 3.443005 -53.227374 19.846725 -0.012761 -0.000003 1.967800 -65.865379 -37.142555 -9.469264 -0.004644 0.045495 10.830453 -0.425333 -2.120679 0.000005 -0.002666 -40.478607 1.410295 -0.041753 -0.080888 0.000028 -0.049122 -35.224308 -5.190379 -0.433746 -0.622066 -0.000000 -12.539531 -6.151380 0.009789 -0.005473 0.003226 9.469264 -0.004642 0.045495 10.727724 0.267449 -0.351760 -0.000052 -0.002665 -40.478657 0.422466 -0.896597 1.118939 0.000028 -0.049116 -35.224251 -4.082354 0.560673 -0.601028 -0.000001 -12.539531 -6.151373 0.015214 -0.004323 -0.003189 
-11.405979 -5.607090 82.963242 2.936773 6.613990 -111.638452 -0.000000 0.009283 11.569107 2.448239 0.098050 -1.036071 -0.000000 -0.016863 9.269638 1.086587 0.048081 -0.457555 -0.000000 0.000000 8.374484 1.086588 0.048081 -0.457555 -0.000001 -0.000001 8.374496 0.814905 0.036875 -0.343079 -0.000000 0.000000 12.152542 20.684676 -0.256712 -0.881667 -0.000001 -0.040104 7.802328 2.229889 -0.207610 -1.689251 -2.894405 0.000000 6.791368 3.860782 -3.148389 2.599372 -13.574682 0.000000 -0.000008 34.377828 -61.125398 77.772741 -23.923901 -0.000010 0.000002 33.494766 16.330584 77.871274 -19.846724 -0.012762 -0.000002 -31.297160 52.488102 55.149522 2.894404 0.000000 6.791367 3.745292 10.135051 -5.936397 13.574683 0.000001 0.000005 27.365356 54.073337 -68.867575 23.923903 0.000014 0.000001 37.753601 3.535697 -52.554932 19.846720 -0.012763 -0.000002 -1.843603 -66.116381 -41.017601 -9.469265 -0.004641 0.045495 10.802511 -0.423066 -2.093502 0.000005 -0.002667 -40.478607 1.412992 -0.043648 -0.081744 0.000028 -0.049125 -35.224308 -5.187358 -0.435632 -0.624460 -0.000001 -12.539532 -6.151378 0.008453 -0.004425 0.003014 9.469263 -0.004643 0.045497 10.708810 0.268644 -0.347739 -0.000054 -0.002668 -40.478661 0.418446 -0.894573 1.130098 0.000029 -0.049120 -35.224251 -4.086121 0.556181 -0.592051 0.000001 -12.539530 -6.151373 0.015910 -0.003682 -0.003200 
